<svg id="Слой_1" data-name="Слой 1" xmlns="http://www.w3.org/2000/svg" viewBox="0 0 575.88 159.15"><title>Монтажная область 13</title><path id="Прямоугольник_1_копия_2" data-name="Прямоугольник 1 копия 2" d="M212.5,105.56c31.49,0,54.39-23.77,54.39-52.78C266.88,23.47,244.28,0,212.79,0s-54.38,23.77-54.38,52.78C158.41,82.09,181,105.56,212.5,105.56Zm.29-20.7c-18.08,0-30.91-14.58-30.91-32.08,0-17.79,12.54-32.08,30.62-32.08s30.91,14.58,30.91,32.08c0,17.78-12.54,32.07-30.62,32.07Zm308.71,20.7c31.49,0,54.39-23.77,54.39-52.78C575.88,23.47,553.28,0,521.79,0s-54.39,23.77-54.39,52.78C467.41,82.09,490,105.56,521.5,105.56Zm.29-20.7c-18.08,0-30.91-14.58-30.91-32.08,0-17.79,12.54-32.08,30.62-32.08s30.91,14.58,30.91,32.08c0,17.78-12.54,32.07-30.62,32.07ZM0,158.81H7.65c6.16,0,10.42-4.29,10.42-9.8s-4.26-9.8-10.42-9.8H0Zm4.31-3.89V143.1H7.65a5.91,5.91,0,1,1,0,11.82H4.31Zm44.1,3.89h4.31V139.21H48.41v19.61Zm45,.34a12.73,12.73,0,0,0,8.38-3.11v-8.51H93.24v3.73h4.34v2.8a6.88,6.88,0,0,1-4.06,1.18,6.21,6.21,0,0,1-.31-12.38,7.22,7.22,0,0,1,5.13,2l2.72-3.28a10.77,10.77,0,0,0-7.7-2.69,10.06,10.06,0,0,0-10.27,9.85q0,.15,0,.29c0,5.85,4.2,10.13,10.3,10.13Zm39-.34h4.31V139.21h-4.31Zm40.1,0h4.31V143.18h6v-4H166.54v4h6v15.63Zm35.7,0h4.4l1.79-4.4h8.29l1.79,4.4H229l-8.4-19.75h-4Zm7.73-8.21,2.6-6.36,2.6,6.36h-5.21Zm42.39,8.21h14.09v-3.92h-9.77V139.21h-4.31v19.61Zm78.37,0h7.65c6.16,0,10.42-4.29,10.42-9.8s-4.26-9.8-10.42-9.8h-7.65Zm4.31-3.89V143.1h3.33a5.91,5.91,0,1,1,0,11.82Zm43.9,3.89h14.93V155H389.2v-4.12h9.24V147H389.2v-4h10.5v-3.84H384.92v19.61Zm52.05.28c4.23,0,7.2-2.18,7.2-6.08,0-3.47-2.24-4.9-6.22-5.94-3.39-.87-4.23-1.29-4.23-2.58,0-1,.87-1.76,2.52-1.76a9.19,9.19,0,0,1,5.1,1.93l2.24-3.25a11.35,11.35,0,0,0-7.28-2.49c-4,0-6.86,2.35-6.86,5.91,0,3.95,2.55,5,6.5,6.05,3.28.84,3.95,1.4,3.95,2.49s-1.06,1.9-2.83,1.9a9,9,0,0,1-5.85-2.38L428.66,156a12.48,12.48,0,0,0,8.31,3.14Zm37.46-.28h4.31V139.21h-4.31Zm45,.34a12.72,12.72,0,0,0,8.38-3.11v-8.51h-8.51v3.73h4.34v2.8a6.88,6.88,0,0,1-4.06,1.18,6.21,6.21,0,0,1-.31-12.38,7.22,7.22,0,0,1,5.13,2l2.72-3.28a10.76,10.76,0,0,0-7.7-2.69,10.06,10.06,0,0,0-10.28,9.84q0,.15,0,.3c0,5.85,4.2,10.14,10.3,10.14Zm38.83-.34h4.26V146.35l9.5,12.46h3.67V139.21h-4.26v12.07l-9.19-12.07h-4v19.61ZM92.78,1.91a11,11,0,0,1,11,11v80a11,11,0,1,1-22,0v-80A11,11,0,0,1,92.78,1.91Zm-80,0a11,11,0,0,1,11,11v80a11,11,0,1,1-22,0v-80A11,11,0,0,1,12.78,1.91Zm320,0a11,11,0,0,1,11,11v80a11,11,0,1,1-22,0v-80A11,11,0,0,1,332.78,1.91Zm-8,1.41c4.63-4,12.47-2.53,17.52,3.32L408.86,83.7c5.05,5.85,5.4,13.85.77,17.87s-12.47,2.53-17.52-3.32L325.57,21.19C320.51,15.34,320.17,7.34,324.79,3.32Zm77-1.41a11,11,0,0,1,11,11v80a11,11,0,1,1-22,0v-80A11,11,0,0,1,401.78,1.91Zm-349,0a11,11,0,0,1,11,11v57a11,11,0,0,1-22,0v-57A11,11,0,0,1,52.78,1.91Z"/></svg>