<svg xmlns="http://www.w3.org/2000/svg" viewBox="0 0 88 88.38"><defs><style>.cls-1{isolation:isolate;}.cls-2{opacity:0.8;}.cls-3{opacity:0.53;mix-blend-mode:multiply;}.cls-4{fill:#383737;}.cls-10,.cls-100,.cls-101,.cls-102,.cls-103,.cls-104,.cls-105,.cls-106,.cls-107,.cls-108,.cls-109,.cls-11,.cls-110,.cls-111,.cls-112,.cls-113,.cls-114,.cls-115,.cls-116,.cls-117,.cls-118,.cls-119,.cls-12,.cls-120,.cls-121,.cls-122,.cls-123,.cls-124,.cls-125,.cls-126,.cls-127,.cls-128,.cls-129,.cls-13,.cls-130,.cls-131,.cls-132,.cls-133,.cls-134,.cls-135,.cls-136,.cls-137,.cls-138,.cls-139,.cls-14,.cls-140,.cls-141,.cls-142,.cls-143,.cls-144,.cls-145,.cls-146,.cls-147,.cls-148,.cls-149,.cls-15,.cls-150,.cls-16,.cls-17,.cls-18,.cls-19,.cls-20,.cls-21,.cls-22,.cls-23,.cls-24,.cls-25,.cls-26,.cls-27,.cls-28,.cls-29,.cls-30,.cls-31,.cls-32,.cls-33,.cls-34,.cls-35,.cls-36,.cls-37,.cls-38,.cls-39,.cls-40,.cls-41,.cls-42,.cls-43,.cls-44,.cls-45,.cls-46,.cls-47,.cls-48,.cls-49,.cls-5,.cls-50,.cls-51,.cls-52,.cls-53,.cls-54,.cls-55,.cls-56,.cls-57,.cls-58,.cls-59,.cls-6,.cls-60,.cls-61,.cls-62,.cls-63,.cls-64,.cls-65,.cls-66,.cls-67,.cls-68,.cls-69,.cls-7,.cls-70,.cls-71,.cls-72,.cls-73,.cls-74,.cls-75,.cls-76,.cls-77,.cls-78,.cls-79,.cls-8,.cls-80,.cls-81,.cls-82,.cls-83,.cls-84,.cls-85,.cls-86,.cls-87,.cls-88,.cls-89,.cls-9,.cls-90,.cls-91,.cls-92,.cls-93,.cls-94,.cls-95,.cls-96,.cls-97,.cls-98,.cls-99{fill:#666;}.cls-5{opacity:0.32;}.cls-6{opacity:0.39;}.cls-7{opacity:0.48;}.cls-8{opacity:0.32;}.cls-9{opacity:0.47;}.cls-10{opacity:0.35;}.cls-11{opacity:0.43;}.cls-12{opacity:0.26;}.cls-13{opacity:0.35;}.cls-14{opacity:0.24;}.cls-15{opacity:0.26;}.cls-16{opacity:0.43;}.cls-17{opacity:0.22;}.cls-18{opacity:0.45;}.cls-19{opacity:0.17;}.cls-20{opacity:0.32;}.cls-21{opacity:0.29;}.cls-22{opacity:0.23;}.cls-23{opacity:0.16;}.cls-24{opacity:0.42;}.cls-25{opacity:0.22;}.cls-26{opacity:0.35;}.cls-27{opacity:0.15;}.cls-28{opacity:0.28;}.cls-29{opacity:0.25;}.cls-30{opacity:0.42;}.cls-31{opacity:0.45;}.cls-32{opacity:0.16;}.cls-33{opacity:0.2;}.cls-34{opacity:0.13;}.cls-35{opacity:0.22;}.cls-36{opacity:0.34;}.cls-37{opacity:0.37;}.cls-38{opacity:0.4;}.cls-39{opacity:0.17;}.cls-40{opacity:0.38;}.cls-41{opacity:0.38;}.cls-42{opacity:0.38;}.cls-43{opacity:0.29;}.cls-44{opacity:0.47;}.cls-45{opacity:0.26;}.cls-46{opacity:0.14;}.cls-47{opacity:0.26;}.cls-48{opacity:0.33;}.cls-49{opacity:0.26;}.cls-50{opacity:0.37;}.cls-51{opacity:0.21;}.cls-52{opacity:0.42;}.cls-53{opacity:0.39;}.cls-54{opacity:0.25;}.cls-55{opacity:0.38;}.cls-56{opacity:0.31;}.cls-57{opacity:0.44;}.cls-58{opacity:0.18;}.cls-59{opacity:0.38;}.cls-60{opacity:0.22;}.cls-61{opacity:0.26;}.cls-62{opacity:0.43;}.cls-63{opacity:0.19;}.cls-64{opacity:0.11;}.cls-65{opacity:0.12;}.cls-66{opacity:0.19;}.cls-67{opacity:0.41;}.cls-68{opacity:0.34;}.cls-69{opacity:0.17;}.cls-70{opacity:0.34;}.cls-71{opacity:0.4;}.cls-72{opacity:0.36;}.cls-73{opacity:0.16;}.cls-74{opacity:0.14;}.cls-75{opacity:0.27;}.cls-76{opacity:0.41;}.cls-77{opacity:0.33;}.cls-78{opacity:0.16;}.cls-79{opacity:0.31;}.cls-80{opacity:0.24;}.cls-81{opacity:0.16;}.cls-82{opacity:0.21;}.cls-83{opacity:0.43;}.cls-84{opacity:0.31;}.cls-85{opacity:0.39;}.cls-86{opacity:0.21;}.cls-87{opacity:0.21;}.cls-88{opacity:0.25;}.cls-89{opacity:0.3;}.cls-90{opacity:0.13;}.cls-91{opacity:0.45;}.cls-92{opacity:0.37;}.cls-93{opacity:0.18;}.cls-94{opacity:0.1;}.cls-95{opacity:0.22;}.cls-96{opacity:0.28;}.cls-97{opacity:0.12;}.cls-98{opacity:0.17;}.cls-99{opacity:0.25;}.cls-100{opacity:0.15;}.cls-101{opacity:0.5;}.cls-102{opacity:0.38;}.cls-103{opacity:0.49;}.cls-104{opacity:0.3;}.cls-105{opacity:0.42;}.cls-106{opacity:0.12;}.cls-107{opacity:0.41;}.cls-108{opacity:0.46;}.cls-109{opacity:0.49;}.cls-110{opacity:0.32;}.cls-111{opacity:0.44;}.cls-112{opacity:0.22;}.cls-113{opacity:0.47;}.cls-114{opacity:0.11;}.cls-115{opacity:0.21;}.cls-116{opacity:0.3;}.cls-117{opacity:0.27;}.cls-118{opacity:0.21;}.cls-119{opacity:0.3;}.cls-120{opacity:0.28;}.cls-121{opacity:0.11;}.cls-122{opacity:0.22;}.cls-123{opacity:0.26;}.cls-124{opacity:0.25;}.cls-125{opacity:0.43;}.cls-126{opacity:0.2;}.cls-127{opacity:0.34;}.cls-128{opacity:0.47;}.cls-129{opacity:0.21;}.cls-130{opacity:0.12;}.cls-131{opacity:0.27;}.cls-132{opacity:0.37;}.cls-133{opacity:0.4;}.cls-134{opacity:0.46;}.cls-135{opacity:0.42;}.cls-136{opacity:0.11;}.cls-137{opacity:0.2;}.cls-138{opacity:0.47;}.cls-139{opacity:0.42;}.cls-140{opacity:0.2;}.cls-141{opacity:0.25;}.cls-142{opacity:0.1;}.cls-143{opacity:0.38;}.cls-144{opacity:0.11;}.cls-145{opacity:0.22;}.cls-146{opacity:0.11;}.cls-147{opacity:0.33;}.cls-148{opacity:0.35;}.cls-149{opacity:0.23;}.cls-150{opacity:0.48;}</style></defs><title>Монтажная область 13</title><g class="cls-1"><g id="Layer_1" data-name="Layer 1"><g class="cls-2"><g class="cls-3"><polygon class="cls-4" points="39.44 73.7 57.45 80.74 75.44 87.86 57.43 80.81 39.44 73.7"/><polygon class="cls-4" points="32.31 32.37 23.88 16.47 15.51 0.54 23.94 16.44 32.31 32.37"/><polygon class="cls-4" points="15.51 0.54 11.51 17.32 7.43 34.09 11.44 17.3 15.51 0.54"/><polygon class="cls-4" points="56.66 41.71 44.32 31.68 32.03 21.61 44.37 31.63 56.66 41.71"/><polygon class="cls-4" points="38.31 16.92 53.83 18.27 69.34 19.68 53.82 18.34 38.31 16.92"/><polygon class="cls-4" points="10.08 53.37 5.27 39.27 0.53 25.15 5.34 39.25 10.08 53.37"/><polygon class="cls-4" points="46.79 80.28 61.12 84.03 75.44 87.86 61.1 84.11 46.79 80.28"/><polygon class="cls-4" points="38.31 16.92 26.89 8.76 15.51 0.54 26.93 8.7 38.31 16.92"/><polygon class="cls-4" points="75.44 87.86 67.01 76.81 58.65 65.71 67.07 76.76 75.44 87.86"/><polygon class="cls-4" points="75.44 87.86 70.82 75.07 66.28 62.25 70.89 75.04 75.44 87.86"/><polygon class="cls-4" points="14.58 53.1 27.82 55.37 41.05 57.72 27.81 55.44 14.58 53.1"/><polygon class="cls-4" points="15.51 0.54 23.8 11.05 32.03 21.61 23.74 11.1 15.51 0.54"/><polygon class="cls-4" points="32.46 37.99 19.94 36.07 7.43 34.09 19.95 36 32.46 37.99"/><polygon class="cls-4" points="41.05 57.72 30.14 64.08 19.19 70.38 30.1 64.02 41.05 57.72"/><polygon class="cls-4" points="32.03 21.61 32.4 34.2 32.69 46.8 32.32 34.2 32.03 21.61"/><polygon class="cls-4" points="32.69 46.8 44.67 44.22 56.66 41.71 44.68 44.29 32.69 46.8"/><polygon class="cls-4" points="31.76 83.85 22.25 77.42 12.78 70.94 22.29 77.36 31.76 83.85"/><polygon class="cls-4" points="69.34 19.68 58.99 24.43 48.61 29.12 58.96 24.37 69.34 19.68"/><polygon class="cls-4" points="75.92 53.31 66.27 47.54 56.66 41.71 66.31 47.48 75.92 53.31"/><polygon class="cls-4" points="42.09 81.4 53.05 83.46 64 85.6 53.04 83.54 42.09 81.4"/><polygon class="cls-4" points="14.58 53.1 23.53 46.8 32.53 40.56 23.57 46.86 14.58 53.1"/><polygon class="cls-4" points="58.65 65.71 67.26 59.48 75.92 53.31 67.31 59.54 58.65 65.71"/><polygon class="cls-4" points="58.65 65.71 49.06 69.74 39.44 73.7 49.03 69.67 58.65 65.71"/><polygon class="cls-4" points="69.9 59.09 78.67 53.69 87.48 48.35 78.71 53.75 69.9 59.09"/><polygon class="cls-4" points="73.12 33.68 80.33 40.99 87.48 48.35 80.27 41.04 73.12 33.68"/><polygon class="cls-4" points="19.19 70.38 29.32 72 39.44 73.7 29.31 72.08 19.19 70.38"/><polygon class="cls-4" points="66.77 35.01 71.38 44.14 75.92 53.31 71.31 44.18 66.77 35.01"/><polygon class="cls-4" points="14.58 53.1 10.97 43.6 7.43 34.09 11.04 43.58 14.58 53.1"/><polygon class="cls-4" points="58.65 65.71 49.83 61.75 41.05 57.72 49.87 61.68 58.65 65.71"/><polygon class="cls-4" points="32.69 46.8 23.64 49.98 14.58 53.1 23.62 49.91 32.69 46.8"/><polygon class="cls-4" points="48.61 29.12 57.7 32.03 66.77 35.01 57.68 32.1 48.61 29.12"/><polygon class="cls-4" points="19.19 70.38 25.5 77.09 31.76 83.85 25.45 77.14 19.19 70.38"/><polygon class="cls-4" points="64 85.6 55.39 82.98 46.79 80.28 55.41 82.91 64 85.6"/><polygon class="cls-4" points="12.78 70.94 13.64 62.01 14.58 53.1 13.72 62.02 12.78 70.94"/><polygon class="cls-4" points="14.58 53.1 16.92 61.73 19.19 70.38 16.85 61.75 14.58 53.1"/><polygon class="cls-4" points="10.08 53.37 11.47 62.15 12.78 70.94 11.39 62.16 10.08 53.37"/><polygon class="cls-4" points="48.77 51.73 53.74 58.7 58.65 65.71 53.68 58.74 48.77 51.73"/><polygon class="cls-4" points="7.45 69.95 8.73 61.65 10.08 53.37 8.8 61.66 7.45 69.95"/><polygon class="cls-4" points="69.34 19.68 71.56 27.75 73.71 35.84 71.49 27.77 69.34 19.68"/><polygon class="cls-4" points="39.44 73.7 40.21 65.71 41.05 57.72 40.28 65.71 39.44 73.7"/><polygon class="cls-4" points="48.61 29.12 43.43 23.04 38.31 16.92 43.48 23 48.61 29.12"/><polygon class="cls-4" points="66.77 35.01 68.02 27.34 69.34 19.68 68.09 27.36 66.77 35.01"/><polygon class="cls-4" points="31.76 83.85 39.27 82.03 46.79 80.28 39.28 82.1 31.76 83.85"/><path class="cls-4" d="M56.66,41.71q-4.09-6.26-8.05-12.59Q52.69,35.37,56.66,41.71Z"/><path class="cls-4" d="M87.48,48.35Q80.23,48,73,47.46,80.24,47.83,87.48,48.35Z"/><path class="cls-4" d="M41.05,57.72Q36.82,52.3,32.69,46.8,36.93,52.22,41.05,57.72Z"/><path class="cls-4" d="M75.92,53.31q-4.78,4.52-9.65,8.94Q71.05,57.73,75.92,53.31Z"/><path class="cls-4" d="M57.17,15.29q6.11,2.13,12.17,4.39Q63.23,17.55,57.17,15.29Z"/><path class="cls-4" d="M56.66,41.71q-3.89,5.06-7.89,10Q52.66,46.68,56.66,41.71Z"/><path class="cls-4" d="M.53,25.15Q4,29.58,7.43,34.09,3.92,29.66.53,25.15Z"/><path class="cls-4" d="M47.12,12.66q5,1.25,10,2.63Q52.13,14,47.12,12.66Z"/><path class="cls-4" d="M72.1,45.66q.74-4.92,1.61-9.82Q73,40.76,72.1,45.66Z"/><path class="cls-4" d="M46.79,80.29Q43.07,77,39.44,73.7,43.16,76.94,46.79,80.29Z"/><path class="cls-4" d="M41.05,57.72q3.82-3,7.72-6Q45,54.78,41.05,57.72Z"/><path class="cls-4" d="M47.85,17.77q4.64-1.31,9.32-2.48Q52.53,16.6,47.85,17.77Z"/><path class="cls-4" d="M9.58,25.15q-4.53.07-9.06,0Q5.05,25.08,9.58,25.15Z"/><path class="cls-4" d="M66.28,62.25Q62.49,64,58.65,65.71,62.43,63.92,66.28,62.25Z"/><path class="cls-4" d="M32,21.61q3.1-2.4,6.28-4.69Q35.21,19.32,32,21.61Z"/><path class="cls-4" d="M73.71,35.84q-3.48-.34-6.94-.83Q70.25,35.36,73.71,35.84Z"/><path class="cls-4" d="M31.76,83.85q-3.34.16-6.68.18Q28.42,83.86,31.76,83.85Z"/><path class="cls-4" d="M12.78,70.94q3.2-.35,6.41-.55Q16,70.73,12.78,70.94Z"/><path class="cls-4" d="M69.59,40.64q2-2.45,4.12-4.8Q71.7,38.29,69.59,40.64Z"/><path class="cls-4" d="M47.12,12.66q-1.86,2.4-3.84,4.71Q45.15,15,47.12,12.66Z"/><path class="cls-4" d="M69.39,62.15q-.55,2.7-1.23,5.37Q68.71,64.82,69.39,62.15Z"/><path class="cls-4" d="M12.78,70.94q-2.68-.43-5.33-1Q10.13,70.37,12.78,70.94Z"/><path class="cls-4" d="M47.12,12.66q-.67,2.48-1.47,4.92Q46.32,15.1,47.12,12.66Z"/><path class="cls-4" d="M10.08,53.37q2.24-.21,4.5-.27Q12.33,53.3,10.08,53.37Z"/><path class="cls-4" d="M25.08,84q.75-1.84,1.62-3.62Q26,82.25,25.08,84Z"/><path class="cls-4" d="M69.39,62.15q.2-1.66.54-3.29Q69.73,60.52,69.39,62.15Z"/><path class="cls-4" d="M66.28,62.25q1.56-.12,3.12-.1Q67.84,62.27,66.28,62.25Z"/><path class="cls-4" d="M69.39,62.15A17.69,17.69,0,0,1,68.66,60,17.67,17.67,0,0,1,69.39,62.15Z"/><path class="cls-4" d="M64,85.6a2,2,0,0,1,.07-.75A2,2,0,0,1,64,85.6Z"/><path class="cls-4" d="M64.17,84.88a2,2,0,0,1-.17.72A2,2,0,0,1,64.17,84.88Z"/></g><circle class="cls-5" cx="75.44" cy="87.86" r="0.53"/><circle class="cls-6" cx="39.44" cy="73.7" r="0.51"/><circle class="cls-7" cx="15.51" cy="0.54" r="0.54"/><circle class="cls-8" cx="32.31" cy="32.37" r="0.5"/><circle class="cls-9" cx="7.43" cy="34.09" r="0.49"/><circle class="cls-10" cx="15.51" cy="0.54" r="0.5"/><circle class="cls-11" cx="32.03" cy="21.61" r="0.5"/><circle class="cls-12" cx="56.66" cy="41.71" r="0.5"/><circle class="cls-13" cx="69.34" cy="19.68" r="0.5"/><circle class="cls-14" cx="38.31" cy="16.92" r="0.52"/><circle class="cls-15" cx="0.53" cy="25.15" r="0.53"/><circle class="cls-16" cx="10.08" cy="53.37" r="0.5"/><circle class="cls-17" cx="75.44" cy="87.86" r="0.5"/><circle class="cls-18" cx="46.79" cy="80.29" r="0.5"/><circle class="cls-19" cx="15.51" cy="0.54" r="0.52"/><circle class="cls-20" cx="38.31" cy="16.92" r="0.51"/><circle class="cls-21" cx="58.65" cy="65.71" r="0.52"/><circle class="cls-22" cx="75.44" cy="87.86" r="0.5"/><circle class="cls-23" cx="66.28" cy="62.25" r="0.52"/><circle class="cls-24" cx="75.44" cy="87.86" r="0.52"/><circle class="cls-25" cx="41.05" cy="57.72" r="0.5"/><circle class="cls-26" cx="14.58" cy="53.1" r="0.54"/><circle class="cls-27" cx="32.03" cy="21.61" r="0.53"/><circle class="cls-28" cx="15.51" cy="0.54" r="0.52"/><circle class="cls-29" cx="7.43" cy="34.09" r="0.51"/><circle class="cls-30" cx="32.46" cy="37.99" r="0.5"/><circle class="cls-31" cx="19.19" cy="70.38" r="0.52"/><circle class="cls-32" cx="41.05" cy="57.72" r="0.54"/><circle class="cls-33" cx="32.69" cy="46.8" r="0.49"/><circle class="cls-34" cx="32.03" cy="21.61" r="0.52"/><circle class="cls-35" cx="56.66" cy="41.71" r="0.52"/><circle class="cls-36" cx="32.69" cy="46.8" r="0.5"/><circle class="cls-37" cx="12.78" cy="70.94" r="0.52"/><circle class="cls-38" cx="31.76" cy="83.85" r="0.52"/><circle class="cls-39" cx="48.61" cy="29.12" r="0.52"/><circle class="cls-40" cx="69.34" cy="19.68" r="0.52"/><circle class="cls-41" cx="56.66" cy="41.71" r="0.48"/><circle class="cls-42" cx="75.92" cy="53.31" r="0.49"/><circle class="cls-43" cx="64.01" cy="85.6" r="0.52"/><circle class="cls-44" cx="42.09" cy="81.4" r="0.52"/><circle class="cls-45" cx="32.53" cy="40.56" r="0.49"/><circle class="cls-46" cx="14.58" cy="53.1" r="0.52"/><circle class="cls-47" cx="75.92" cy="53.31" r="0.49"/><circle class="cls-48" cx="58.65" cy="65.71" r="0.51"/><circle class="cls-49" cx="39.44" cy="73.7" r="0.53"/><circle class="cls-50" cx="58.65" cy="65.71" r="0.53"/><circle class="cls-51" cx="87.48" cy="48.35" r="0.5"/><circle class="cls-52" cx="69.9" cy="59.09" r="0.5"/><circle class="cls-53" cx="87.48" cy="48.35" r="0.49"/><circle class="cls-54" cx="73.12" cy="33.68" r="0.5"/><circle class="cls-55" cx="39.44" cy="73.7" r="0.5"/><circle class="cls-56" cx="19.19" cy="70.38" r="0.51"/><circle class="cls-57" cx="75.92" cy="53.31" r="0.51"/><circle class="cls-58" cx="66.77" cy="35.01" r="0.49"/><circle class="cls-59" cx="7.43" cy="34.09" r="0.53"/><circle class="cls-60" cx="14.58" cy="53.1" r="0.54"/><circle class="cls-61" cx="41.05" cy="57.72" r="0.54"/><circle class="cls-62" cx="58.65" cy="65.71" r="0.5"/><circle class="cls-63" cx="14.58" cy="53.1" r="0.5"/><circle class="cls-64" cx="32.69" cy="46.8" r="0.51"/><circle class="cls-65" cx="66.77" cy="35.01" r="0.48"/><circle class="cls-66" cx="48.61" cy="29.12" r="0.5"/><circle class="cls-67" cx="31.76" cy="83.85" r="0.5"/><circle class="cls-68" cx="19.19" cy="70.38" r="0.5"/><circle class="cls-69" cx="46.79" cy="80.29" r="0.49"/><circle class="cls-70" cx="64" cy="85.6" r="0.51"/><circle class="cls-71" cx="14.58" cy="53.1" r="0.48"/><circle class="cls-72" cx="12.78" cy="70.94" r="0.53"/><circle class="cls-73" cx="19.19" cy="70.38" r="0.52"/><circle class="cls-74" cx="14.58" cy="53.1" r="0.51"/><circle class="cls-75" cx="12.78" cy="70.94" r="0.52"/><circle class="cls-76" cx="10.08" cy="53.37" r="0.5"/><circle class="cls-77" cx="58.65" cy="65.71" r="0.52"/><circle class="cls-78" cx="48.77" cy="51.73" r="0.53"/><circle class="cls-79" cx="10.08" cy="53.37" r="0.5"/><circle class="cls-80" cx="7.45" cy="69.95" r="0.52"/><circle class="cls-81" cx="73.71" cy="35.84" r="0.5"/><circle class="cls-82" cx="69.34" cy="19.68" r="0.51"/><circle class="cls-83" cx="41.05" cy="57.72" r="0.49"/><circle class="cls-84" cx="39.44" cy="73.7" r="0.52"/><circle class="cls-85" cx="38.31" cy="16.92" r="0.49"/><circle class="cls-86" cx="48.61" cy="29.12" r="0.51"/><circle class="cls-87" cx="69.34" cy="19.68" r="0.51"/><circle class="cls-88" cx="66.77" cy="35.01" r="0.49"/><circle class="cls-89" cx="46.79" cy="80.29" r="0.54"/><circle class="cls-90" cx="31.76" cy="83.85" r="0.5"/><circle class="cls-91" cx="48.61" cy="29.12" r="0.53"/><circle class="cls-92" cx="56.66" cy="41.71" r="0.53"/><circle class="cls-93" cx="73" cy="47.46" r="0.5"/><circle class="cls-94" cx="87.48" cy="48.35" r="0.53"/><circle class="cls-95" cx="32.69" cy="46.8" r="0.49"/><circle class="cls-96" cx="41.05" cy="57.72" r="0.5"/><circle class="cls-97" cx="66.28" cy="62.25" r="0.49"/><circle class="cls-98" cx="75.92" cy="53.31" r="0.5"/><circle class="cls-99" cx="69.34" cy="19.68" r="0.48"/><circle class="cls-100" cx="57.17" cy="15.29" r="0.53"/><circle class="cls-101" cx="48.77" cy="51.73" r="0.51"/><circle class="cls-102" cx="56.66" cy="41.71" r="0.53"/><circle class="cls-103" cx="7.43" cy="34.09" r="0.53"/><circle class="cls-104" cx="0.53" cy="25.15" r="0.51"/><circle class="cls-105" cx="57.17" cy="15.29" r="0.53"/><circle class="cls-106" cx="47.12" cy="12.66" r="0.49"/><circle class="cls-107" cx="73.71" cy="35.84" r="0.52"/><circle class="cls-108" cx="72.1" cy="45.66" r="0.52"/><circle class="cls-109" cx="39.44" cy="73.7" r="0.52"/><circle class="cls-110" cx="46.79" cy="80.29" r="0.52"/><circle class="cls-111" cx="48.77" cy="51.73" r="0.51"/><circle class="cls-112" cx="41.05" cy="57.72" r="0.5"/><circle class="cls-113" cx="57.17" cy="15.29" r="0.52"/><circle class="cls-114" cx="47.85" cy="17.77" r="0.51"/><circle class="cls-115" cx="0.53" cy="25.15" r="0.48"/><circle class="cls-116" cx="9.58" cy="25.15" r="0.5"/><circle class="cls-117" cx="58.65" cy="65.71" r="0.51"/><circle class="cls-118" cx="66.28" cy="62.25" r="0.51"/><circle class="cls-119" cx="38.31" cy="16.92" r="0.5"/><circle class="cls-120" cx="32.03" cy="21.61" r="0.51"/><circle class="cls-121" cx="66.77" cy="35.01" r="0.52"/><circle class="cls-122" cx="73.71" cy="35.84" r="0.5"/><circle class="cls-123" cx="25.08" cy="84.02" r="0.52"/><circle class="cls-124" cx="31.76" cy="83.85" r="0.54"/><circle class="cls-125" cx="19.19" cy="70.38" r="0.5"/><circle class="cls-126" cx="12.78" cy="70.94" r="0.54"/><circle class="cls-127" cx="73.71" cy="35.84" r="0.49"/><circle class="cls-128" cx="69.59" cy="40.64" r="0.53"/><circle class="cls-129" cx="43.29" cy="17.36" r="0.51"/><circle class="cls-130" cx="47.12" cy="12.66" r="0.48"/><circle class="cls-131" cx="68.16" cy="67.52" r="0.52"/><circle class="cls-132" cx="69.39" cy="62.15" r="0.5"/><circle class="cls-133" cx="7.45" cy="69.95" r="0.53"/><circle class="cls-134" cx="12.78" cy="70.94" r="0.5"/><circle class="cls-135" cx="45.65" cy="17.57" r="0.53"/><circle class="cls-136" cx="47.12" cy="12.66" r="0.5"/><circle class="cls-137" cx="14.58" cy="53.1" r="0.51"/><circle class="cls-138" cx="10.08" cy="53.37" r="0.51"/><circle class="cls-139" cx="26.71" cy="80.41" r="0.49"/><circle class="cls-140" cx="25.08" cy="84.02" r="0.51"/><circle class="cls-141" cx="69.93" cy="58.86" r="0.51"/><circle class="cls-142" cx="69.39" cy="62.15" r="0.53"/><circle class="cls-143" cx="69.39" cy="62.15" r="0.51"/><circle class="cls-144" cx="66.28" cy="62.25" r="0.52"/><circle class="cls-145" cx="68.66" cy="60.04" r="0.5"/><circle class="cls-146" cx="69.39" cy="62.15" r="0.52"/><circle class="cls-147" cx="64.08" cy="84.85" r="0.5"/><circle class="cls-148" cx="64" cy="85.6" r="0.53"/><circle class="cls-149" cx="64" cy="85.6" r="0.5"/><circle class="cls-150" cx="64.17" cy="84.88" r="0.5"/></g></g></g></svg>