<?xml version="1.0" encoding="utf-8"?>
<!-- Generator: Adobe Illustrator 19.0.0, SVG Export Plug-In . SVG Version: 6.00 Build 0)  -->
<svg version="1.1" id="Слой_1" xmlns="http://www.w3.org/2000/svg" xmlns:xlink="http://www.w3.org/1999/xlink" x="0px" y="0px"
	 viewBox="-17 317.9 575.9 159.1" style="enable-background:new -17 317.9 575.9 159.1;" xml:space="preserve">
<style type="text/css">
	.st0{fill:#474A4D;}
</style>
<title>Монтажная область 13</title>
<path id="Прямоугольник_1_копия_2" class="st0" d="M195.5,423.4c31.5,0,54.4-23.8,54.4-52.8
	c0-29.3-22.6-52.8-54.1-52.8s-54.4,23.8-54.4,52.8C141.4,399.9,164,423.4,195.5,423.4z M195.8,402.7c-18.1,0-30.9-14.6-30.9-32.1
	c0-17.8,12.5-32.1,30.6-32.1s30.9,14.6,30.9,32.1C226.4,388.4,213.9,402.7,195.8,402.7L195.8,402.7z M504.5,423.4
	c31.5,0,54.4-23.8,54.4-52.8c0-29.3-22.6-52.8-54.1-52.8s-54.4,23.8-54.4,52.8C450.4,399.9,473,423.4,504.5,423.4z M504.8,402.7
	c-18.1,0-30.9-14.6-30.9-32.1c0-17.8,12.5-32.1,30.6-32.1s30.9,14.6,30.9,32.1C535.4,388.4,522.9,402.7,504.8,402.7L504.8,402.7z
	 M-17,476.7h7.6c6.2,0,10.4-4.3,10.4-9.8s-4.3-9.8-10.4-9.8H-17V476.7z M-12.7,472.8V461h3.3c3.3,0,5.9,2.6,5.9,5.9
	s-2.6,5.9-5.9,5.9H-12.7L-12.7,472.8z M31.4,476.7h4.3v-19.6h-4.3V476.7L31.4,476.7z M76.4,477c3.1,0,6.1-1.1,8.4-3.1v-8.5h-8.6v3.7
	h4.3v2.8c-1.2,0.8-2.6,1.2-4.1,1.2c-3.4-0.2-6.1-3.1-5.9-6.5c0.2-3.1,2.5-5.6,5.6-5.9c1.9,0,3.8,0.7,5.1,2l2.7-3.3
	c-2.1-1.9-4.9-2.8-7.7-2.7c-5.6-0.1-10.2,4.3-10.3,9.8c0,0,0,0,0,0c0,0.1,0,0.2,0,0.3C66.1,472.7,70.3,477,76.4,477L76.4,477z
	 M115.4,476.7h4.3v-19.6h-4.3V476.7z M155.5,476.7h4.3V461h6v-4h-16.3v4h6L155.5,476.7L155.5,476.7z M191.2,476.7h4.4l1.8-4.4h8.3
	l1.8,4.4h4.5l-8.4-19.8h-4L191.2,476.7z M198.9,468.5l2.6-6.4l2.6,6.4H198.9L198.9,468.5z M241.3,476.7h14.1v-3.9h-9.8v-15.7h-4.3
	L241.3,476.7L241.3,476.7z M319.7,476.7h7.6c6.2,0,10.4-4.3,10.4-9.8s-4.3-9.8-10.4-9.8h-7.6V476.7z M324,472.8V461h3.3
	c3.3,0,5.9,2.6,5.9,5.9s-2.6,5.9-5.9,5.9H324z M367.9,476.7h14.9v-3.8h-10.6v-4.1h9.2v-3.9h-9.2v-4h10.5V457h-14.8L367.9,476.7
	L367.9,476.7z M420,476.9c4.2,0,7.2-2.2,7.2-6.1c0-3.5-2.2-4.9-6.2-5.9c-3.4-0.9-4.2-1.3-4.2-2.6c0-1,0.9-1.8,2.5-1.8
	c1.9,0.1,3.6,0.8,5.1,1.9l2.2-3.3c-2.1-1.7-4.6-2.5-7.3-2.5c-4,0-6.9,2.4-6.9,5.9c0,4,2.5,5,6.5,6c3.3,0.8,4,1.4,4,2.5
	s-1.1,1.9-2.8,1.9c-2.2-0.1-4.3-0.9-5.9-2.4l-2.5,3.1C414,475.9,416.9,477,420,476.9L420,476.9z M457.4,476.7h4.3v-19.6h-4.3V476.7z
	 M502.4,477c3.1,0,6.1-1.1,8.4-3.1v-8.5h-8.5v3.7h4.3v2.8c-1.2,0.8-2.6,1.2-4.1,1.2c-3.4-0.2-6.1-3.1-5.9-6.5
	c0.2-3.1,2.5-5.6,5.6-5.9c1.9,0,3.8,0.7,5.1,2l2.7-3.3c-2.1-1.9-4.9-2.8-7.7-2.7c-5.6-0.1-10.2,4.3-10.3,9.8c0,0,0,0,0,0
	c0,0.1,0,0.2,0,0.3C492.1,472.7,496.3,477,502.4,477L502.4,477z M541.3,476.7h4.3v-12.5l9.5,12.5h3.7v-19.6h-4.3v12.1l-9.2-12.1h-4
	L541.3,476.7L541.3,476.7z M75.8,319.8c6.1,0,11,4.9,11,11v80c0,6.1-4.9,11-11,11s-11-4.9-11-11v-80
	C64.8,324.7,69.7,319.8,75.8,319.8L75.8,319.8z M-4.2,319.8c6.1,0,11,4.9,11,11v80c0,6.1-4.9,11-11,11s-11-4.9-11-11v-80
	C-15.2,324.7-10.3,319.8-4.2,319.8C-4.2,319.8-4.2,319.8-4.2,319.8z M315.8,319.8c6.1,0,11,4.9,11,11v80c0,6.1-4.9,11-11,11
	s-11-4.9-11-11v-80C304.8,324.7,309.7,319.8,315.8,319.8L315.8,319.8z M307.8,321.2c4.6-4,12.5-2.5,17.5,3.3l66.6,77.1
	c5,5.9,5.4,13.9,0.8,17.9c-4.6,4-12.5,2.5-17.5-3.3L308.6,339C303.5,333.2,303.2,325.2,307.8,321.2L307.8,321.2z M384.8,319.8
	c6.1,0,11,4.9,11,11v80c0,6.1-4.9,11-11,11s-11-4.9-11-11v-80C373.8,324.7,378.7,319.8,384.8,319.8L384.8,319.8z M35.8,319.8
	c6.1,0,11,4.9,11,11v57c0,6.1-4.9,11-11,11s-11-4.9-11-11v-57C24.8,324.7,29.7,319.8,35.8,319.8L35.8,319.8z"/>
</svg>
